<svg version="1.1" id="Layer_1" xmlns="http://www.w3.org/2000/svg" xmlns:xlink="http://www.w3.org/1999/xlink" x="0px" y="0px"
     width="175px" height="35px" viewBox="57.771 7.856 175 35" enable-background="new 57.771 7.856 175 35" xml:space="preserve">
<a xlink:href="http://antistatique.net" target='_parent' >
<rect x="57.771" y="7.856" fill="#ffffff" width="175" height="35"/>
    <g>
        <path fill="#d40b6b" d="M139.833,30.401c-0.571,0-1.114-0.303-1.114-0.96v-8.582h2.76v-3.462h-2.76v-5.494l-4.017,2.16v3.334
            h-2.43v3.462h2.43v9.413c0,1.831,1.146,3.786,4.366,3.786c1.515,0,2.511-0.4,2.511-0.4v-3.591
            C141.579,30.068,140.464,30.401,139.833,30.401z"/>
        <path fill="#d40b6b" d="M105.164,30.401c-0.571,0-1.114-0.303-1.114-0.96v-8.582h2.759v-3.462h-2.759v-5.494l-4.018,2.16v3.334
            h-2.429v3.462h2.429v9.413c0,1.831,1.146,3.786,4.367,3.786c1.514,0,2.51-0.4,2.51-0.4v-3.591
            C106.91,30.068,105.794,30.401,105.164,30.401z"/>
        <path fill="#d40b6b" d="M89.226,16.99c-1.546,0-3.463,0.986-4.315,2.404l-0.282-2.019h-3.58v16.703h4.008v-9.666
            c0-2.278,1.877-3.689,3.618-3.689c2.282,0,3.094,1.953,3.094,3.78v9.574h4.006v-9.765C95.775,19.591,93.449,16.99,89.226,16.99z"
            />
        <path fill="#d40b6b" d="M210.505,26.473c0,2.279-1.926,3.689-3.708,3.689c-1.907,0-2.55-0.953-2.55-3.781v-8.983h-4.006v9.359
            c0,4.927,1.993,7.321,6.096,7.321c1.674,0,3.421-0.755,4.406-2.233l0.188,1.849h3.582V17.397h-4.008V26.473L210.505,26.473z"/>
        <path fill="#d40b6b" d="M169.57,30.401c-0.571,0-1.114-0.303-1.114-0.96v-8.582h2.759v-3.462h-2.759v-5.494l-4.018,2.16v3.334
            h-2.431v3.462h2.431v9.413c0,1.831,1.147,3.786,4.366,3.786c1.514,0,2.51-0.4,2.51-0.4v-3.591
            C171.316,30.068,170.201,30.401,169.57,30.401z"/>
        <rect x="109.975" y="17.376" fill="#d40b6b" width="4.007" height="16.703"/>
        <path fill="#d40b6b" d="M111.978,10.083c-1.339,0-2.429,1.09-2.429,2.43c0,1.339,1.089,2.428,2.429,2.428
            c1.34,0,2.429-1.09,2.429-2.428C114.407,11.174,113.317,10.083,111.978,10.083z"/>
        <rect x="174.491" y="17.376" fill="#d40b6b" width="4.008" height="16.703"/>
        <path fill="#d40b6b" d="M176.494,10.083c-1.34,0-2.429,1.09-2.429,2.43c0,1.339,1.089,2.428,2.429,2.428
            c1.338,0,2.43-1.09,2.43-2.428C178.924,11.174,177.833,10.083,176.494,10.083z"/>
        <path fill="#d40b6b" d="M232.771,26.269c0-2.784-0.659-5.078-1.97-6.72c-1.254-1.571-3.1-2.551-5.562-2.551
            c-2.245,0-4.292,0.889-5.762,2.532c-1.457,1.621-2.258,3.86-2.258,6.303c0,5.5,4.106,8.615,7.932,8.615
            c3.823,0,6.261-1.702,7.163-4.19l-3.774-1.095c-0.644,0.996-1.566,1.587-3.389,1.587c-2.245,0-3.604-1.862-3.699-3.623h11.274
            C232.727,27.127,232.771,26.604,232.771,26.269z M221.529,23.958c0.27-1.551,1.231-3.324,3.608-3.324
            c2.38,0,3.278,1.601,3.399,3.324H221.529z"/>
        <path fill="#d40b6b" d="M66.168,10.891l-8.396,23.155h4.394l1.611-4.657h8.841l1.653,4.657h4.687l-8.413-23.155H66.168z
             M65.105,25.491l3.09-8.918l3.039,8.918H65.105z"/>
        <path fill="#d40b6b" d="M116.307,29.322c0.482,3.161,3.256,5.125,7.179,5.125c4.772,0,7.069-2.157,7.069-5.062
            c0-3.052-2.123-4.505-5.478-5.411c-3.604-0.972-4.128-1.29-4.128-2.114c0-0.558,0.57-1.421,2.272-1.421
            c1.842,0,2.806,0.851,3.118,1.9l3.918-0.675c-0.776-2.838-3.209-4.658-7.037-4.658c-3.566,0-6.249,2.296-6.249,4.997
            c0,2.822,1.793,4.047,5.228,4.9c3.549,0.88,4.406,1.543,4.406,2.339c0,0.923-0.927,1.593-2.994,1.593
            c-1.708,0-2.996-0.849-3.235-2.235L116.307,29.322z"/>
        <path fill="#d40b6b" d="M193.19,19.339c-0.67-1.275-2.248-2.342-4.191-2.342c-4.406,0-7.73,3.792-7.73,8.822
            c0,5.001,3.175,8.63,7.549,8.63c1.746,0,3.545-1.068,4.214-2.622v8.801h4.008v-23.23h-3.578L193.19,19.339z M189.242,30.714
            c-2.208,0-4.002-2.241-4.002-5.009c0-2.765,1.793-5.008,4.002-5.008c2.212,0,4.004,2.242,4.004,5.008
            C193.246,28.473,191.454,30.714,189.242,30.714z"/>
        <path fill="#d40b6b" d="M160.084,30.401c-0.448,0-0.822-0.265-0.822-0.752V17.398h-3.578l-0.252,1.947
            c-0.819-1.52-2.503-2.347-4.209-2.347c-4.408,0-7.732,3.792-7.732,8.822c0,5.001,3.176,8.63,7.548,8.63
            c1.949,0,3.974-1.329,4.538-2.685c0.021,1.157,1.07,2.286,3.095,2.286c1.457,0,2.728-0.393,2.728-0.393v-3.59
            C161.4,30.068,160.585,30.401,160.084,30.401z M151.465,30.714c-2.21,0-4.003-2.241-4.003-5.009c0-2.765,1.792-5.008,4.003-5.008
            s4.003,2.242,4.003,5.008C155.468,28.473,153.676,30.714,151.465,30.714z"/>
    </g>
</a>
</svg>
