<?xml version="1.0" encoding="utf-8"?>
<!-- Generator: Adobe Illustrator 16.0.0, SVG Export Plug-In . SVG Version: 6.00 Build 0)  -->
<!DOCTYPE svg PUBLIC "-//W3C//DTD SVG 1.0//EN" "http://www.w3.org/TR/2001/REC-SVG-20010904/DTD/svg10.dtd">
<svg version="1.0" id="Layer_1" xmlns="http://www.w3.org/2000/svg" xmlns:xlink="http://www.w3.org/1999/xlink" x="0px" y="0px"
	 width="70px" height="70px" viewBox="0 0 70 70" enable-background="new 0 0 70 70" xml:space="preserve">
<g>
	<defs>
		<path id="SVGID_1_" d="M39.167,23.283c-2.619,0.953-4.274,3.411-4.086,6.101l0.063,1.038l-1.048-0.127
			c-3.813-0.487-7.145-2.139-9.974-4.915l-1.383-1.377l-0.356,1.017c-0.754,2.267-0.272,4.661,1.299,6.271
			c0.838,0.89,0.649,1.017-0.796,0.487c-0.503-0.169-0.943-0.296-0.985-0.233c-0.146,0.149,0.356,2.076,0.754,2.839
			c0.545,1.06,1.655,2.097,2.871,2.712l1.027,0.487l-1.215,0.021c-1.173,0-1.215,0.021-1.089,0.467
			c0.419,1.377,2.074,2.839,3.918,3.475l1.299,0.444l-1.131,0.678c-1.676,0.976-3.646,1.526-5.616,1.568
			C21.775,44.256,21,44.341,21,44.405c0,0.211,2.557,1.397,4.044,1.864c4.463,1.377,9.765,0.783,13.746-1.568
			c2.829-1.673,5.657-5,6.978-8.221c0.713-1.716,1.425-4.851,1.425-6.354c0-0.975,0.063-1.102,1.236-2.267
			c0.692-0.678,1.341-1.419,1.467-1.631c0.21-0.403,0.188-0.403-0.88-0.043c-1.781,0.636-2.033,0.551-1.152-0.402
			c0.649-0.678,1.425-1.907,1.425-2.267c0-0.063-0.314,0.042-0.671,0.233c-0.377,0.212-1.215,0.53-1.844,0.72l-1.131,0.361
			l-1.027-0.7c-0.566-0.381-1.361-0.805-1.781-0.932C41.766,22.902,40.131,22.944,39.167,23.283z M35,65C18.432,65,5,51.569,5,35
			S18.432,5,35,5s30,13.431,30,30S51.568,65,35,65z"/>
	</defs>
	<clipPath id="SVGID_2_">
		<use xlink:href="#SVGID_1_"  overflow="visible"/>
	</clipPath>
	<rect clip-path="url(#SVGID_2_)" fill-rule="evenodd" clip-rule="evenodd" fill="#3A95FF" width="70" height="70"/>
</g>
</svg>
